<?xml version="1.0" encoding="utf-8"?><svg version="1.1" id="Layer_1" xmlns="http://www.w3.org/2000/svg" xmlns:xlink="http://www.w3.org/1999/xlink" x="0px" y="0px" viewBox="0 0 92.01 122.88" style="enable-background:new 0 0 92.01 122.88" xml:space="preserve"><g><path d="M9.69,34.39c4.14-2.82,8.18-3.94,12.25-4.19c-3.63-3.02-6.34-7.36-7.79-13.64c-0.01-0.03-0.02-0.06-0.02-0.09 c-0.2-0.86,0.33-1.71,1.19-1.91c3.16-0.74,6.46-0.72,9.87-0.05c1.86,0.37,3.75,0.93,5.68,1.67c-0.77-1.71-1.27-3.46-1.46-5.23 c-0.33-3.15,0.32-6.34,2.22-9.48l0,0C31.92,1,32.42,0.69,33,0.69c3.13-0.01,5.92,1.49,8.37,3.89c1.93,1.89,3.64,4.36,5.14,7.09 c1.09-2.71,2.53-5.09,4.29-6.98c2.42-2.59,5.43-4.27,9.02-4.67c0.68-0.12,1.38,0.21,1.7,0.86c1.35,2.71,1.78,5.79,1.54,9h0 c-0.16,2.11-0.6,4.29-1.27,6.45c1.35-0.61,2.8-1.08,4.36-1.4c3.03-0.62,6.46-0.66,10.32-0.03l0.06,0.01 c0.87,0.13,1.47,0.94,1.35,1.81c-0.88,6.01-3.41,10.4-6.98,13.53c3.27,0.38,6.72,1.44,10.63,3.69c1.5,0.86,2.85,1.85,4.05,2.95 c1.22,1.13,2.27,2.37,3.14,3.72c3.67,5.72,3.92,13.67,2.4,21.8C89.12,73.16,84,84.34,79.78,90.72c-3.42,5.17-7.69,10.4-12.96,15.71 c-5.25,5.28-11.48,10.62-18.86,16.04c-0.75,0.55-1.74,0.53-2.47,0.03l0,0c-7.65-5.33-14.47-10.91-20.36-16.77 c-5.91-5.87-10.87-12.03-14.79-18.5C5.54,79.32,0.29,66.92,0.01,55.67C-0.2,47.23,2.32,39.41,9.69,34.39L9.69,34.39z M15.08,56.32 c2-2.53,2.7-4.11,2.7-5.51c0-1.4-0.98-2.84-2.7-2.84c-1.73,0-2.53,1.4-2.53,2.8C12.56,52.17,13.13,53.3,15.08,56.32L15.08,56.32z M54.26,105.94c2-2.53,2.7-4.11,2.7-5.51c0-1.4-0.98-2.84-2.7-2.84c-1.73,0-2.53,1.4-2.53,2.8 C51.73,101.79,52.31,102.92,54.26,105.94L54.26,105.94z M39.02,105.04c2-2.53,2.7-4.11,2.7-5.51c0-1.4-0.98-2.84-2.7-2.84 c-1.73,0-2.53,1.4-2.53,2.8C36.5,100.89,37.07,102.02,39.02,105.04L39.02,105.04z M31.25,90.5c2-2.53,2.7-4.11,2.7-5.51 c0-1.4-0.98-2.84-2.7-2.84c-1.73,0-2.53,1.4-2.53,2.8C28.73,86.35,29.3,87.48,31.25,90.5L31.25,90.5z M62.16,90.5 c2-2.53,2.7-4.11,2.7-5.51c0-1.4-0.98-2.84-2.7-2.84c-1.73,0-2.53,1.4-2.53,2.8C59.64,86.35,60.21,87.48,62.16,90.5L62.16,90.5z M46.48,89.03c2-2.53,2.7-4.11,2.7-5.51c0-1.4-0.98-2.84-2.7-2.84c-1.73,0-2.53,1.4-2.53,2.8C43.96,84.88,44.53,86.02,46.48,89.03 L46.48,89.03z M70.68,75.16c2-2.53,2.7-4.11,2.7-5.51c0-1.4-0.98-2.84-2.7-2.84c-1.73,0-2.53,1.4-2.53,2.8 C68.15,71.01,68.73,72.14,70.68,75.16L70.68,75.16z M56.02,74.03c2-2.53,2.7-4.11,2.7-5.51c0-1.4-0.98-2.84-2.7-2.84 s-2.53,1.4-2.53,2.8C53.49,69.88,54.07,71.01,56.02,74.03L56.02,74.03z M38.53,74.03c2-2.53,2.7-4.11,2.7-5.51 c0-1.4-0.98-2.84-2.7-2.84c-1.73,0-2.53,1.4-2.53,2.8C36,69.88,36.58,71.01,38.53,74.03L38.53,74.03z M23.3,74.03 c2-2.53,2.7-4.11,2.7-5.51c0-1.4-0.98-2.84-2.7-2.84c-1.73,0-2.53,1.4-2.53,2.8C20.77,69.88,21.35,71.01,23.3,74.03L23.3,74.03z M77.42,56.32c2-2.53,2.7-4.11,2.7-5.51c0-1.4-0.98-2.84-2.7-2.84c-1.73,0-2.53,1.4-2.53,2.8C74.9,52.17,75.47,53.3,77.42,56.32 L77.42,56.32z M62.08,56.32c2-2.53,2.7-4.11,2.7-5.51c0-1.4-0.98-2.84-2.7-2.84c-1.73,0-2.53,1.4-2.53,2.8 C59.56,52.17,60.13,53.3,62.08,56.32L62.08,56.32z M47.27,56.32c2-2.53,2.7-4.11,2.7-5.51c0-1.4-0.98-2.84-2.7-2.84 s-2.53,1.4-2.53,2.8C44.75,52.17,45.32,53.3,47.27,56.32L47.27,56.32z M30.07,56.32c2-2.53,2.7-4.11,2.7-5.51 c0-1.4-0.98-2.84-2.7-2.84c-1.73,0-2.53,1.4-2.53,2.8C27.54,52.17,28.12,53.3,30.07,56.32L30.07,56.32z M28.14,30.38 c2.18,0.22,4.38,0.57,6.63,0.93c3.94,0.62,8.05,1.27,12.31,1.23c4.08-0.04,7.78-0.13,11.2-0.74c2.5-0.44,4.83-1.42,7.23-1.6 c0.35-0.2,0.7-0.4,1.04-0.62c3.84-2.46,6.73-6.21,7.9-11.73c-2.85-0.33-5.4-0.24-7.66,0.22c-2.77,0.56-5.12,1.69-7.08,3.27 c-0.69,0.55-1.69,0.44-2.24-0.24c-0.38-0.48-0.45-1.1-0.22-1.63l0,0c1.41-3.27,2.4-6.64,2.63-9.8l0-0.01h0 c0.17-2.25-0.05-4.39-0.76-6.29c-2.32,0.49-4.33,1.73-5.99,3.51c-2.17,2.33-3.78,5.59-4.79,9.38c-0.22,0.85-1.1,1.36-1.95,1.13 c-0.48-0.13-0.86-0.46-1.05-0.89l0,0c-1.71-3.76-3.79-7.26-6.21-9.64c-1.61-1.59-3.37-2.65-5.24-2.92 c-1.16,2.24-1.55,4.48-1.32,6.68c0.29,2.75,1.55,5.49,3.52,8.12c0.53,0.7,0.38,1.7-0.32,2.23c-0.52,0.39-1.19,0.41-1.72,0.12 c-3.27-1.67-6.44-2.85-9.48-3.45c-2.4-0.47-4.72-0.58-6.94-0.27c1.88,6.66,5.51,10.58,10.22,12.89 C27.96,30.29,28.05,30.33,28.14,30.38L28.14,30.38z M63.16,34.74c-4.99,1.81-10.7,2.38-16.34,2.19 c-5.14-0.17-10.07-0.58-14.51-1.71c-7.13-1.1-13.74-1.73-20.22,2.68c-5.98,4.07-8.01,10.58-7.84,17.67 c0.26,10.42,5.19,22.03,9.71,29.47c3.73,6.15,8.48,12.03,14.16,17.68c5.38,5.34,11.59,10.47,18.55,15.41 c6.66-4.98,12.33-9.87,17.13-14.7c5.06-5.09,9.16-10.11,12.43-15.06c3.99-6.03,8.82-16.58,10.72-26.73 c1.34-7.16,1.2-14.04-1.8-18.72c-0.69-1.08-1.51-2.04-2.44-2.91c-0.96-0.89-2.05-1.68-3.28-2.39 C73.31,34.11,68.34,34.03,63.16,34.74L63.16,34.74z"/></g></svg>